<svg width="42" height="42" viewBox="0 0 42 42" fill="none" xmlns="http://www.w3.org/2000/svg">
<path d="M1 6C1 3.23858 3.23858 1 6 1H36C38.7614 1 41 3.23858 41 6V36C41 38.7614 38.7614 41 36 41H6C3.23858 41 1 38.7614 1 36V6Z" fill="#EAEEE5"/>
<path d="M7 14.1519V30.9378C7 31.4865 7.55122 31.8616 8.05806 31.6581L14.716 28.6122V10L7.97029 12.7119C7.68392 12.827 7.43843 13.0257 7.26548 13.2824C7.09254 13.539 7.00007 13.8419 7 14.1519ZM16.2593 28.6122L25.5185 31.7143V13.102L16.2593 10V28.6122ZM33.7197 10.0562L27.0617 13.102V31.7143L33.8075 29.0024C34.0939 28.8874 34.3394 28.6887 34.5124 28.432C34.6853 28.1753 34.7778 27.8724 34.7778 27.5624V10.7765C34.7778 10.2278 34.2266 9.85265 33.7197 10.0562Z" fill="#3E7E55"/>
<path d="M29 26C29 24.8954 29.8954 24 31 24H37C38.1046 24 39 24.8954 39 26V32C39 33.1046 38.1046 34 37 34H31C29.8954 34 29 33.1046 29 32V26Z" fill="#EAEEE5"/>
<path d="M32.4 25H30M30 25L30 27.4M30 25L32.6667 27.6667M35.6 33H38M38 33L38 30.6M38 33L35.3333 30.3333M38 27.4V25M38 25L35.6 25M38 25L35.3333 27.6667M30 30.6V33M30 33L32.4 33M30 33L32.6667 30.3333M6 41H36C38.7614 41 41 38.7614 41 36V6C41 3.23858 38.7614 1 36 1H6C3.23858 1 1 3.23858 1 6V36C1 38.7614 3.23858 41 6 41ZM7 14.1519V30.9378C7 31.4865 7.55122 31.8616 8.05806 31.6581L14.716 28.6122V10L7.97029 12.7119C7.68392 12.827 7.43843 13.0257 7.26548 13.2824C7.09254 13.539 7.00007 13.8419 7 14.1519ZM16.2593 28.6122L25.5185 31.7143V13.102L16.2593 10V28.6122ZM33.7197 10.0562L27.0617 13.102V31.7143L33.8075 29.0024C34.0939 28.8874 34.3394 28.6887 34.5124 28.432C34.6853 28.1753 34.7778 27.8724 34.7778 27.5624V10.7765C34.7778 10.2278 34.2266 9.85265 33.7197 10.0562ZM31 34H37C38.1046 34 39 33.1046 39 32V26C39 24.8954 38.1046 24 37 24H31C29.8954 24 29 24.8954 29 26V32C29 33.1046 29.8954 34 31 34Z" stroke="#3E7E55" stroke-width="0.7" stroke-linecap="round"/>
</svg>
